<svg width="93" height="26" viewBox="0 0 93 26" fill="none" xmlns="http://www.w3.org/2000/svg">
<rect y="1" width="24.4574" height="24.4574" rx="12.2287" fill="#966262"/>
<path d="M17.1202 8.70562L15.2826 18.2991C15.2826 18.2991 15.0255 18.9642 14.3191 18.6452L10.0793 15.2788L10.0596 15.2688C10.6323 14.7363 15.0734 10.6013 15.2675 10.4139C15.5679 10.1236 15.3814 9.95081 15.0325 10.1701L8.47254 14.4841L5.94172 13.6023C5.94172 13.6023 5.54344 13.4556 5.50513 13.1366C5.46631 12.8171 5.95483 12.6443 5.95483 12.6443L16.2722 8.45293C16.2722 8.45293 17.1202 8.06711 17.1202 8.70562Z" fill="white"/>
<g clip-path="url(#clip0_11_2040)">
<rect x="68" y="1" width="24.4574" height="24.4574" rx="12.2287" fill="#966262"/>
<path d="M86.3288 9.71515C85.4769 9.71513 84.6599 9.37669 84.0575 8.77428C83.4551 8.17187 83.1167 7.35484 83.1167 6.50293H80.8218V15.4894C80.8214 15.8991 80.692 16.2983 80.452 16.6304C80.212 16.9625 79.8736 17.2106 79.4848 17.3396C79.0959 17.4687 78.6763 17.472 78.2854 17.3492C77.8945 17.2264 77.5522 16.9837 77.3069 16.6555C77.0617 16.3273 76.926 15.9302 76.919 15.5206C76.912 15.1109 77.0342 14.7095 77.2681 14.3731C77.5021 14.0367 77.8359 13.7825 78.2224 13.6465C78.6089 13.5105 79.0284 13.4996 79.4214 13.6153V11.3845C78.5862 11.2718 77.7364 11.4167 76.9857 11.7997C76.2349 12.1827 75.6188 12.7857 75.2198 13.5281C74.8207 14.2704 74.6576 15.1169 74.7523 15.9544C74.847 16.7919 75.1949 17.5805 75.7496 18.2151C76.3043 18.8497 77.0394 19.2999 77.8567 19.5057C78.674 19.7115 79.5346 19.663 80.3237 19.3668C81.1128 19.0705 81.7927 18.5406 82.2726 17.8478C82.7526 17.155 83.0098 16.3323 83.0098 15.4894L83.0768 10.947C84.0197 11.6392 85.1593 12.0117 86.329 12.0099L86.3288 9.71515Z" fill="white"/>
</g>
<rect x="34" width="24.4574" height="24.4574" rx="12.2287" fill="#966262"/>
<path d="M46.8295 16.5088C42.2336 16.5088 39.6122 13.2956 39.5029 7.94873H41.8051C41.8807 11.8732 43.5779 13.5355 44.9222 13.8782V7.94873H47.0899V11.3334C48.4174 11.1877 49.8122 9.64533 50.2827 7.94873H52.4504C52.2731 8.82863 51.9197 9.66176 51.4122 10.396C50.9048 11.1302 50.2542 11.7498 49.5013 12.2159C50.3418 12.6418 51.0841 13.2447 51.6794 13.9847C52.2746 14.7246 52.7092 15.585 52.9545 16.5088H50.5683C50.3481 15.7064 49.9006 14.9881 49.2818 14.4439C48.6631 13.8997 47.9006 13.5539 47.0899 13.4498V16.5088H46.8295Z" fill="white"/>
<defs>
<clipPath id="clip0_11_2040">
<rect width="24.4574" height="24.4574" fill="white" transform="translate(68 1)"/>
</clipPath>
</defs>
</svg>
