<svg width="35" height="35" viewBox="0 0 35 35" fill="none" xmlns="http://www.w3.org/2000/svg">
<path d="M28.4854 26.9806H19.6068H11.509C11.1143 26.9806 10.8264 26.6071 10.9269 26.2254L12.233 21.2621M12.233 21.2621H27.1662C27.952 21.2621 28.6476 20.754 28.8865 20.0054L32.2484 9.47137C32.6202 8.30641 31.7549 7.1165 30.5321 7.1165C26.4911 7.1165 18.333 7.1165 12.534 7.1165M12.233 21.2621L6.88838 4.93133C6.84153 4.78816 6.7427 4.66777 6.61141 4.59392L2 2" stroke="#966262" stroke-width="4" stroke-linecap="round" stroke-linejoin="round"/>
<path d="M12.6851 29.335C13.5993 28.4208 15.0816 28.4208 15.9958 29.335C16.91 30.2492 16.91 31.7315 15.9958 32.6457C15.0816 33.5599 13.5993 33.5599 12.6851 32.6457C11.7709 31.7315 11.7709 30.2492 12.6851 29.335Z" stroke="#966262" stroke-width="3"/>
<path d="M24.1212 29.335C25.0354 28.4208 26.5176 28.4208 27.4318 29.335C28.3461 30.2492 28.3461 31.7315 27.4318 32.6457C26.5176 33.5599 25.0354 33.5599 24.1212 32.6457C23.2069 31.7315 23.2069 30.2492 24.1212 29.335Z" stroke="#966262" stroke-width="3"/>
</svg>
