<svg width="161" height="62" viewBox="0 0 161 62" fill="none" xmlns="http://www.w3.org/2000/svg">
<path d="M15.298 16.7015H4.05988C2.91707 16.7015 2.33656 15.3271 3.13332 14.5079L14.9174 2.39089C15.1608 2.14067 15.495 1.99951 15.844 1.99951H48.0083C48.3242 1.99951 48.6291 2.11518 48.8655 2.32468L58.4345 10.8045" stroke="#966262" stroke-width="4" stroke-linecap="round"/>
<path d="M17.802 8.05811L30.6353 43.534C31.0474 44.6733 32.6598 44.6704 33.0677 43.5295L45.7519 8.05811M7.54297 27.7684L30.8239 58.6292C31.3416 59.3154 32.3726 59.3145 32.889 58.6272L62.5343 19.1744C63.1745 18.3225 62.5666 17.1055 61.501 17.1055H48.66" stroke="#966262" stroke-width="4" stroke-linecap="round"/>
<path d="M30.4138 10.3826L26.1108 15.1935C25.3661 16.0261 25.9571 17.3476 27.0742 17.3476H36.8922C38.0866 17.3476 38.6419 15.8663 37.7418 15.0811L32.2268 10.2703C31.6936 9.80516 30.8855 9.85523 30.4138 10.3826Z" stroke="#966262" stroke-width="4" stroke-linecap="round"/>
<circle cx="4.31219" cy="22.8408" r="2.10028" fill="#966262"/>
<path d="M73.8109 47.372C72.0956 47.372 70.4319 47.1447 68.8199 46.69C67.2286 46.2147 65.9472 45.605 64.9759 44.861L66.6809 41.079C67.6109 41.761 68.7166 42.3087 69.9979 42.722C71.2792 43.1353 72.5606 43.342 73.8419 43.342C75.2679 43.342 76.3219 43.1353 77.0039 42.722C77.6859 42.288 78.0269 41.7197 78.0269 41.017C78.0269 40.5003 77.8202 40.0767 77.4069 39.746C77.0142 39.3947 76.4976 39.1157 75.8569 38.909C75.2369 38.7023 74.3896 38.475 73.3149 38.227C71.6616 37.8343 70.3079 37.4417 69.2539 37.049C68.1999 36.6563 67.2906 36.026 66.5259 35.158C65.7819 34.29 65.4099 33.1327 65.4099 31.686C65.4099 30.4253 65.7509 29.2887 66.4329 28.276C67.1149 27.2427 68.1379 26.4263 69.5019 25.827C70.8866 25.2277 72.5709 24.928 74.5549 24.928C75.9396 24.928 77.2932 25.0933 78.6159 25.424C79.9386 25.7547 81.0959 26.23 82.0879 26.85L80.5379 30.663C78.5332 29.5263 76.5286 28.958 74.5239 28.958C73.1186 28.958 72.0749 29.1853 71.3929 29.64C70.7316 30.0947 70.4009 30.694 70.4009 31.438C70.4009 32.182 70.7832 32.74 71.5479 33.112C72.3332 33.4633 73.5216 33.8147 75.1129 34.166C76.7662 34.5587 78.1199 34.9513 79.1739 35.344C80.2279 35.7367 81.1269 36.3567 81.8709 37.204C82.6356 38.0513 83.0179 39.1983 83.0179 40.645C83.0179 41.885 82.6666 43.0217 81.9639 44.055C81.2819 45.0677 80.2486 45.8737 78.8639 46.473C77.4792 47.0723 75.7949 47.372 73.8109 47.372ZM94.5095 43.373C95.3775 43.373 96.1421 43.249 96.8035 43.001C97.4855 42.7323 98.1158 42.319 98.6945 41.761L101.267 44.551C99.6968 46.349 97.4028 47.248 94.3855 47.248C92.5048 47.248 90.8411 46.8863 89.3945 46.163C87.9478 45.419 86.8318 44.396 86.0465 43.094C85.2611 41.792 84.8685 40.3143 84.8685 38.661C84.8685 37.0283 85.2508 35.561 86.0155 34.259C86.8008 32.9363 87.8651 31.9133 89.2085 31.19C90.5725 30.446 92.1018 30.074 93.7965 30.074C95.3878 30.074 96.8345 30.415 98.1365 31.097C99.4385 31.7583 100.472 32.7297 101.236 34.011C102.022 35.2717 102.414 36.77 102.414 38.506L90.0765 40.893C90.4278 41.7197 90.9755 42.3397 91.7195 42.753C92.4841 43.1663 93.4141 43.373 94.5095 43.373ZM93.7965 33.732C92.5771 33.732 91.5851 34.1247 90.8205 34.91C90.0558 35.6953 89.6528 36.7803 89.6115 38.165L97.7335 36.584C97.5061 35.716 97.0411 35.0237 96.3385 34.507C95.6358 33.9903 94.7885 33.732 93.7965 33.732ZM115.802 30.074C117.869 30.074 119.532 30.694 120.793 31.934C122.074 33.174 122.715 35.0133 122.715 37.452V47H117.879V38.196C117.879 36.8733 117.59 35.8917 117.011 35.251C116.432 34.5897 115.595 34.259 114.5 34.259C113.281 34.259 112.309 34.6413 111.586 35.406C110.863 36.15 110.501 37.266 110.501 38.754V47H105.665V30.322H110.284V32.275C110.925 31.5723 111.72 31.035 112.671 30.663C113.622 30.2703 114.665 30.074 115.802 30.074ZM132.71 47.248C131.325 47.248 129.971 47.0827 128.649 46.752C127.326 46.4007 126.272 45.9667 125.487 45.45L127.099 41.978C127.843 42.4533 128.742 42.846 129.796 43.156C130.85 43.4453 131.883 43.59 132.896 43.59C134.942 43.59 135.965 43.0837 135.965 42.071C135.965 41.5957 135.686 41.2547 135.128 41.048C134.57 40.8413 133.712 40.6657 132.555 40.521C131.191 40.3143 130.064 40.0767 129.176 39.808C128.287 39.5393 127.512 39.064 126.851 38.382C126.21 37.7 125.89 36.7287 125.89 35.468C125.89 34.414 126.189 33.484 126.789 32.678C127.409 31.8513 128.297 31.2107 129.455 30.756C130.633 30.3013 132.017 30.074 133.609 30.074C134.787 30.074 135.954 30.2083 137.112 30.477C138.29 30.725 139.261 31.0763 140.026 31.531L138.414 34.972C136.946 34.1453 135.345 33.732 133.609 33.732C132.575 33.732 131.8 33.8767 131.284 34.166C130.767 34.4553 130.509 34.8273 130.509 35.282C130.509 35.7987 130.788 36.1603 131.346 36.367C131.904 36.5737 132.792 36.77 134.012 36.956C135.376 37.1833 136.492 37.4313 137.36 37.7C138.228 37.948 138.982 38.413 139.623 39.095C140.263 39.777 140.584 40.7277 140.584 41.947C140.584 42.9803 140.274 43.9 139.654 44.706C139.034 45.512 138.124 46.1423 136.926 46.597C135.748 47.031 134.342 47.248 132.71 47.248ZM151.968 43.373C152.836 43.373 153.601 43.249 154.262 43.001C154.944 42.7323 155.575 42.319 156.153 41.761L158.726 44.551C157.156 46.349 154.862 47.248 151.844 47.248C149.964 47.248 148.3 46.8863 146.853 46.163C145.407 45.419 144.291 44.396 143.505 43.094C142.72 41.792 142.327 40.3143 142.327 38.661C142.327 37.0283 142.71 35.561 143.474 34.259C144.26 32.9363 145.324 31.9133 146.667 31.19C148.031 30.446 149.561 30.074 151.255 30.074C152.847 30.074 154.293 30.415 155.595 31.097C156.897 31.7583 157.931 32.7297 158.695 34.011C159.481 35.2717 159.873 36.77 159.873 38.506L147.535 40.893C147.887 41.7197 148.434 42.3397 149.178 42.753C149.943 43.1663 150.873 43.373 151.968 43.373ZM151.255 33.732C150.036 33.732 149.044 34.1247 148.279 34.91C147.515 35.6953 147.112 36.7803 147.07 38.165L155.192 36.584C154.965 35.716 154.5 35.0237 153.797 34.507C153.095 33.9903 152.247 33.732 151.255 33.732Z" fill="#966262"/>
</svg>
