<svg width="29" height="29" viewBox="0 0 29 29" fill="none" xmlns="http://www.w3.org/2000/svg">
<path d="M25.375 6.34375H3.625C3.12958 6.34375 2.71875 5.93292 2.71875 5.4375C2.71875 4.94208 3.12958 4.53125 3.625 4.53125H25.375C25.8704 4.53125 26.2813 4.94208 26.2813 5.4375C26.2813 5.93292 25.8704 6.34375 25.375 6.34375Z" fill="#DEB6AE"/>
<path d="M25.375 12.3854H3.625C3.12958 12.3854 2.71875 11.9746 2.71875 11.4792C2.71875 10.9838 3.12958 10.5729 3.625 10.5729H25.375C25.8704 10.5729 26.2813 10.9838 26.2813 11.4792C26.2813 11.9746 25.8704 12.3854 25.375 12.3854Z" fill="#DEB6AE"/>
<path d="M25.375 18.4271H3.625C3.12958 18.4271 2.71875 18.0163 2.71875 17.5208C2.71875 17.0254 3.12958 16.6146 3.625 16.6146H25.375C25.8704 16.6146 26.2813 17.0254 26.2813 17.5208C26.2813 18.0163 25.8704 18.4271 25.375 18.4271Z" fill="#DEB6AE"/>
<path d="M25.375 24.4688H3.625C3.12958 24.4688 2.71875 24.0579 2.71875 23.5625C2.71875 23.0671 3.12958 22.6562 3.625 22.6562H25.375C25.8704 22.6562 26.2813 23.0671 26.2813 23.5625C26.2813 24.0579 25.8704 24.4688 25.375 24.4688Z" fill="#DEB6AE"/>
</svg>
