<svg width="31" height="33" viewBox="0 0 31 33" fill="none" xmlns="http://www.w3.org/2000/svg">
<path d="M26.3128 30.2927H4.68721C3.35438 30.2927 2.40398 29 2.80153 27.7278L3.84858 24.3772C4.70772 21.628 7.25385 19.7561 10.1342 19.7561H20.8658C23.7462 19.7561 26.2923 21.628 27.1514 24.3772L28.1985 27.7278C28.596 29 27.6456 30.2927 26.3128 30.2927Z" stroke="#966262" stroke-width="4"/>
<path d="M10.7256 4.77439C13.3624 2.13757 17.6375 2.13757 20.2743 4.77439C22.9112 7.41121 22.9112 11.6863 20.2743 14.3232C17.6375 16.96 13.3624 16.96 10.7256 14.3232C8.08874 11.6863 8.08874 7.41121 10.7256 4.77439Z" stroke="#966262" stroke-width="4"/>
</svg>
